<?xml version="1.0" encoding="UTF-8" standalone="no"?>
<!-- Created with Inkscape (http://www.inkscape.org/) -->

<svg
   version="1.1"
   id="svg2410"
   width="800"
   height="800"
   viewBox="0 0 800 800"
   sodipodi:docname="mobile-phone-in-hand-publicdomain.svg"
   inkscape:version="1.2 (dc2aedaf03, 2022-05-15)"
   xmlns:inkscape="http://www.inkscape.org/namespaces/inkscape"
   xmlns:sodipodi="http://sodipodi.sourceforge.net/DTD/sodipodi-0.dtd"
   xmlns="http://www.w3.org/2000/svg"
   xmlns:svg="http://www.w3.org/2000/svg">
  <defs
     id="defs2414">
    <clipPath
       clipPathUnits="userSpaceOnUse"
       id="clipPath2426">
      <path
         d="M 274.206,503.56 V 236.678 h 151.429 v 18.575 c -0.157,0.074 -0.325,0.134 -0.476,0.217 v 0 c -3.849,2.132 -8.289,7.684 -8.943,14.833 v 0 c -0.443,4.836 0.739,12.005 8.877,18.694 v 0 c 0.191,0.158 0.36,0.305 0.542,0.459 v 0 18.524 c -4.456,3.248 -7.791,7.899 -8.903,13.018 v 0 c -1.425,6.553 0.739,20.155 8.903,29.558 v 0 8.491 c -4.104,5.124 -5.958,12.738 -4.975,20.814 v 0 c 0.697,5.722 2.481,9.52 4.975,12.588 v 0 34.156 c -2.168,6.111 -2.452,13.066 -0.474,19.135 v 0 c 0.166,0.505 0.317,0.988 0.474,1.481 v 0 56.339 z"
         id="path2424" />
    </clipPath>
    <clipPath
       clipPathUnits="userSpaceOnUse"
       id="clipPath2436">
      <path
         d="M 274.20605,503.58769 H 425.69114 V 236.70656 H 274.20605 Z"
         id="path2434" />
    </clipPath>
    <linearGradient
       x1="0"
       y1="0"
       x2="1"
       y2="0"
       gradientUnits="userSpaceOnUse"
       gradientTransform="matrix(151.48509,0,0,-151.48509,274.20605,370.14826)"
       spreadMethod="pad"
       id="linearGradient2442">
      <stop
         style="stop-opacity:1;stop-color:#ffffff"
         offset="0"
         id="stop2438" />
      <stop
         style="stop-opacity:1;stop-color:#211c1c"
         offset="1"
         id="stop2440" />
    </linearGradient>
    <clipPath
       clipPathUnits="userSpaceOnUse"
       id="clipPath2452">
      <path
         d="M 0,600 H 600 V 0 H 0 Z"
         id="path2450" />
    </clipPath>
  </defs>
  <sodipodi:namedview
     id="namedview2412"
     pagecolor="#ffffff"
     bordercolor="#000000"
     borderopacity="0.25"
     inkscape:showpageshadow="2"
     inkscape:pageopacity="0.0"
     inkscape:pagecheckerboard="0"
     inkscape:deskcolor="#d1d1d1"
     showgrid="false"
     inkscape:zoom="1.04625"
     inkscape:cx="400"
     inkscape:cy="400.4779"
     inkscape:window-width="1920"
     inkscape:window-height="1017"
     inkscape:window-x="-8"
     inkscape:window-y="-8"
     inkscape:window-maximized="1"
     inkscape:current-layer="g2418">
    <inkscape:page
       x="0"
       y="0"
       id="page2416"
       width="800"
       height="800" />
  </sodipodi:namedview>
  <g
     id="g2418"
     inkscape:groupmode="layer"
     inkscape:label="Page 1"
     transform="matrix(1.3333333,0,0,-1.3333333,0,800)">
    <g
       id="g2420">
      <g
         id="g2422"
         clip-path="url(#clipPath2426)">
        <g
           id="g2428">
          <g
             id="g2430">
            <g
               id="g2432"
               clip-path="url(#clipPath2436)">
              <path
                 d="M 274.206,503.56 V 236.678 h 151.429 v 18.575 c -0.157,0.074 -0.325,0.134 -0.476,0.217 v 0 c -3.849,2.132 -8.289,7.684 -8.943,14.833 v 0 c -0.443,4.836 0.739,12.005 8.877,18.694 v 0 c 0.191,0.158 0.36,0.305 0.542,0.459 v 0 18.524 c -4.456,3.248 -7.791,7.899 -8.903,13.018 v 0 c -1.425,6.553 0.739,20.155 8.903,29.558 v 0 8.491 c -4.104,5.124 -5.958,12.738 -4.975,20.814 v 0 c 0.697,5.722 2.481,9.52 4.975,12.588 v 0 34.156 c -2.168,6.111 -2.452,13.066 -0.474,19.135 v 0 c 0.166,0.505 0.317,0.988 0.474,1.481 v 0 56.339 z"
                 style="fill:url(#linearGradient2442);stroke:none"
                 id="path2444" />
            </g>
          </g>
        </g>
      </g>
    </g>
    <g
       id="g2446">
      <g
         id="g2448"
         clip-path="url(#clipPath2452)">
        <path
           d="m 398.228,224.909 h 3.911 v -5.327 h -3.911 z m 54.247,224.698 c 0.347,0 0.712,-0.056 1.084,-0.137 -0.081,-0.213 -0.164,-0.422 -0.233,-0.639 l -0.191,-1.112 c -0.034,-0.188 -0.057,-0.378 -0.077,-0.568 l 0.031,-0.581 c -0.017,-1.552 0.705,-3.228 1.927,-4.329 1.211,-1.128 2.76,-1.685 4.243,-1.888 0.971,-0.127 1.942,-0.111 2.887,0.045 0.101,-4.255 -4.248,-14.918 -10.191,-18.883 h -0.029 c -1.114,0 -3.385,1.017 -6.286,3.414 -3.919,3.237 -6.59,6.951 -6.745,8.536 1.193,4.845 10.139,16.142 13.58,16.142 m 9.596,-8.451 c -0.848,0.215 -1.673,0.442 -2.453,0.715 -1.247,0.446 -2.376,1.038 -3.24,1.834 -0.857,0.794 -1.488,1.816 -1.749,3.078 l -0.136,0.464 c -0.016,0.162 -0.028,0.326 -0.054,0.49 l -0.141,1.004 c -0.013,0.174 -0.017,0.354 -0.024,0.531 3.378,-1.131 7.223,-4.989 7.797,-8.116 m -18.341,-18.54 c 1.927,-1.592 5.408,-4.097 8.232,-4.097 0.272,0 0.538,0.023 0.796,0.073 l 0.276,0.053 0.237,0.149 c 6.979,4.372 12.253,16.676 11.867,22.087 -0.383,5.37 -7.247,11.726 -12.663,11.726 -5.58,0 -15.455,-13.55 -16.554,-18.69 l -0.033,-0.314 c 0,-3.099 4.064,-7.868 7.842,-10.987 m -3.489,-109.125 c -3.527,0.142 -10.882,6.194 -12.06,10.753 -0.304,1.178 0.501,3.364 2.152,5.85 3.492,5.256 9.038,9.751 11.506,10.137 0.614,0.066 1.208,0.031 1.783,-0.078 -0.586,-0.925 -0.931,-2.042 -0.916,-3.179 -0.015,-1.91 0.723,-3.762 1.863,-5.234 1.138,-1.482 2.711,-2.63 4.483,-3.21 1.499,-0.506 3.186,-0.515 4.599,0.046 0.258,-0.627 0.44,-1.113 0.536,-1.377 -0.594,-2.566 -10.314,-13.158 -13.946,-13.708 m 4.19,26.456 c 4.504,-1.481 7.691,-7.768 9.07,-11.015 -3.105,0.148 -5.615,1.814 -7.35,4.03 -0.933,1.216 -1.639,2.61 -1.893,4.112 -0.167,0.934 -0.091,1.902 0.173,2.873 m 12.682,-12.024 c -0.224,0.67 -5.572,16.42 -15.635,15.286 l -0.05,-0.006 c -3.969,-0.582 -10.232,-6.39 -13.594,-11.449 -2.241,-3.373 -3.101,-6.152 -2.557,-8.259 1.461,-5.66 9.886,-12.953 15.026,-13.007 l 0.09,-10e-4 0.09,0.01 c 4.156,0.458 11.691,8.305 14.743,12.569 2,2.797 2.097,3.95 1.928,4.708 z m -25.454,52.638 0.057,0.096 c 1.863,3.452 7.68,9.355 11.59,10.124 0.278,0.055 0.52,0.077 0.731,0.077 0.755,0 1.105,-0.287 1.24,-0.398 0.07,-0.058 0.145,-0.124 0.216,-0.183 -0.615,-1.308 -1.003,-2.737 -1.126,-4.221 -0.163,-1.994 0.184,-4.174 1.4,-5.987 1.186,-1.837 3.261,-2.993 5.28,-3.275 1.466,-0.225 2.908,-0.111 4.282,0.206 0.043,-0.268 0.067,-0.528 0.067,-0.778 0,-2.251 -2.347,-6.027 -5.579,-8.978 -3.075,-2.807 -6.349,-4.356 -8.783,-4.131 -2.216,0.206 -6.333,3.808 -8.695,8.646 -1.737,3.557 -1.984,6.765 -0.68,8.802 m 14.358,9.271 c 3.656,-3.179 8.189,-8.385 9.173,-12.212 -1.323,0.138 -2.597,0.316 -3.782,0.692 -1.69,0.526 -3.081,1.513 -3.982,2.873 -0.911,1.358 -1.372,3.067 -1.504,4.856 -0.09,1.234 -0.033,2.499 0.095,3.791 m -5.258,-29.706 c 0.24,-0.022 0.483,-0.033 0.732,-0.033 3.152,0 6.877,1.767 10.348,4.935 3.984,3.636 6.557,8.03 6.557,11.194 0,7.262 -11.101,16.463 -11.215,16.557 -0.816,0.67 -2.254,1.378 -4.454,0.946 -5.011,-0.986 -11.395,-7.505 -13.625,-11.595 -1.877,-2.978 -1.686,-7.125 0.541,-11.687 2.302,-4.714 6.978,-9.932 11.116,-10.317 M 348,222.441 h 6.243 v -3.276 H 348 Z m 6.779,0.926 H 347.3 l 3.739,3.74 z m 42.6,-2 h -1.531 v 5.327 h 3.912 v -0.935 h -1.956 c -0.234,0 -0.425,-0.191 -0.425,-0.425 z m 43.668,87.024 c -1.862,-0.46 -3.552,-0.759 -4.614,-0.807 -8.271,1.407 -14.472,8.186 -15.794,14.264 -1.462,6.73 1.746,22.922 12.968,30.51 13.368,-1.759 22.339,6.872 22.721,7.248 1.629,1.598 9.341,10.127 12.572,13.709 9.523,-10.392 7.034,-26.061 4.289,-30.553 -3.977,-6.51 -22.568,-29.317 -32.142,-34.371 m -4.939,88.113 c 1.781,1.375 3.8,2.933 5.926,4.767 5.187,4.471 7.811,8.003 8.015,10.783 2.064,0.739 4.035,1.906 5.892,3.367 3.636,2.536 6.794,5.568 8.521,7.342 7.907,-7.39 12.934,-14.215 12.934,-17.643 0,-5.547 0,-11.834 -3.1,-15.967 -0.125,-0.166 -0.359,-0.491 -0.687,-0.953 -13.864,-19.393 -25.763,-30.931 -32.646,-31.656 -4.394,-0.466 -8.269,0.875 -11.213,3.867 -4.139,4.206 -6.052,11.297 -5.119,18.967 1.111,9.124 5.013,12.136 11.477,17.126 m -1.533,78.552 -0.176,0.421 -1.232,1.095 -0.623,8.977 c 10.68,-0.667 25.728,-5.952 27.335,-9.858 2.749,-6.672 9.652,-27.376 7.585,-35.051 -2.43,-9.029 -11.011,-23.211 -20.167,-25.234 -4.877,-1.076 -9.606,0.59 -13.327,4.692 -5.613,6.191 -7.672,16.225 -5.006,24.401 3.008,9.224 7.736,25.459 5.611,30.557 m -32.926,37.968 c 0,1.035 0.839,1.874 1.874,1.874 1.034,0 1.873,-0.839 1.873,-1.874 0,-1.034 -0.839,-1.873 -1.873,-1.873 -1.035,0 -1.874,0.839 -1.874,1.873 m -69.788,-1.873 v 3.747 h 27.035 9.035 v -3.747 h -9.035 z m 14.322,-288.71 c -0.187,0 -0.356,0.114 -0.427,0.286 -0.072,0.173 -0.033,0.372 0.1,0.504 l 4.856,4.858 c 0.174,0.174 0.481,0.174 0.655,0 l 4.856,-4.858 c 0.133,-0.132 0.172,-0.331 0.101,-0.504 -0.073,-0.172 -0.241,-0.286 -0.428,-0.286 h -0.727 v -4.202 h -8.094 v 4.202 z m -46.613,4.5 c -1.725,0 -3.194,-1.085 -3.782,-2.606 l -0.79,0.323 c 0.716,1.833 2.49,3.139 4.572,3.139 2.713,0 4.918,-2.207 4.918,-4.92 0,-2.712 -2.205,-4.919 -4.918,-4.919 -0.236,0 -0.427,0.191 -0.427,0.428 0,0.236 0.191,0.427 0.427,0.427 2.24,0 4.065,1.823 4.065,4.064 0,2.241 -1.825,4.064 -4.065,4.064 m -4.898,-4.174 c 0.005,-0.001 0.405,-0.143 1.786,1.294 0.041,0.041 0.074,0.073 0.117,0.118 0.161,0.17 0.431,0.179 0.604,0.018 0.172,-0.162 0.18,-0.432 0.019,-0.604 -1.079,-1.148 -1.868,-1.69 -2.482,-1.69 -0.142,0 -0.274,0.029 -0.399,0.086 -0.657,0.3 -0.856,1.224 -0.663,3.089 0.024,0.233 0.23,0.409 0.469,0.381 0.235,-0.023 0.405,-0.233 0.381,-0.469 -0.005,-0.047 -0.006,-0.08 -0.01,-0.126 -0.178,-1.897 0.163,-2.091 0.178,-2.097 m -35.73,144.772 c 1.505,8.547 3.858,18.121 6.178,27.555 0.621,2.525 1.244,5.063 1.857,7.601 v -27.759 c -2.747,-2.677 -5.611,-5.269 -8.035,-7.397 m 3.362,-18.512 c -1.1,0.698 -2.234,1.366 -3.468,1.965 -0.485,0.229 -0.984,0.448 -1.503,0.656 -0.031,2.12 0.093,4.435 0.337,6.9 1.68,1.396 5.305,4.458 9.307,8.139 v -21.02 c -1.487,1.186 -3.035,2.311 -4.673,3.36 m -4.357,-3.229 c 0.766,-0.229 1.539,-0.486 2.312,-0.779 2.199,-0.845 4.382,-1.885 6.502,-3.042 0.073,-0.041 0.144,-0.083 0.216,-0.124 v -21.895 c -0.09,0.321 -0.177,0.642 -0.27,0.962 -2.114,7.299 -4.68,14.476 -7.628,21.541 l -2.683,-1.341 2.683,1.341 c -0.487,0.974 -0.856,2.097 -1.132,3.337 m -28.076,115.367 c -1.986,-1.321 -4.53,-2.261 -6.556,-2.911 -0.376,2.095 -0.747,4.204 -1.108,6.302 0.101,-0.02 0.207,-0.038 0.308,-0.059 1.105,-0.218 2.174,-0.459 3.183,-0.786 1.009,-0.329 1.954,-0.738 2.803,-1.329 0.491,-0.334 0.939,-0.744 1.37,-1.217 m -0.298,2.367 c -0.863,1.009 -2.048,1.695 -3.258,2.081 -1.217,0.391 -2.476,0.516 -3.701,0.448 -0.219,-0.015 -0.436,-0.042 -0.654,-0.068 -2.309,13.529 -4.159,26.209 -4.156,29.995 1.555,0.405 3.586,0.453 5.835,-0.221 3.035,-0.911 7.381,-16.128 9.383,-29.216 0.303,-1.982 -0.778,-3.58 -2.429,-4.863 -0.21,0.663 -0.552,1.299 -1.02,1.844 m 64.356,-297.746 c 2.185,-3.024 5.221,-5.459 8.576,-7.179 3.358,-1.739 6.999,-2.864 10.68,-3.591 1.165,-0.228 2.335,-0.405 3.508,-0.558 -2.957,-3.179 -7.216,-8.293 -13.486,-16.599 -8.58,-11.365 -18.642,-25.749 -27.116,-38.756 h -0.454 c -8.713,0 -16.802,0.88 -24.302,2.427 l 32.561,57.089 -38.455,-55.705 c -18.945,4.991 -33.815,14.275 -45.102,24.154 l 30.654,51.544 -34.773,-47.769 c -13.7,13.149 -21.282,26.509 -23.875,31.572 4.646,7.48 20.019,35.225 26.741,47.401 0.293,-0.276 0.588,-0.552 0.851,-0.807 0.359,-0.346 0.683,-0.673 0.945,-0.965 0.145,-0.155 0.232,-0.268 0.357,-0.414 l 0.547,-0.699 c 0.733,-0.928 1.493,-1.816 2.27,-2.675 3.117,-3.43 6.504,-6.454 10.045,-9.238 7.096,-5.541 14.787,-10.191 22.978,-13.767 4.097,-1.775 8.328,-3.268 12.686,-4.308 4.352,-1.033 8.857,-1.607 13.358,-1.334 4.478,0.275 9,1.523 12.694,4.089 3.716,2.535 6.397,6.268 8.079,10.281 -1.989,-3.878 -4.913,-7.3 -8.622,-9.425 -3.693,-2.159 -7.987,-2.985 -12.205,-2.919 -4.237,0.07 -8.441,0.936 -12.492,2.236 -4.054,1.306 -7.973,3.037 -11.747,5.032 -7.539,4.008 -14.55,9.036 -20.798,14.748 -3.115,2.861 -6.033,5.92 -8.548,9.164 -0.627,0.811 -1.226,1.633 -1.784,2.466 l -0.415,0.624 c -0.202,0.29 -0.435,0.62 -0.644,0.881 -0.431,0.551 -0.849,1.025 -1.248,1.466 -0.802,0.885 -1.537,1.645 -2.156,2.367 -0.577,0.664 -1.02,1.306 -1.191,1.692 -11.467,30.814 -11.886,53.805 -12.324,78.105 -0.158,8.782 -0.322,17.863 -1,27.579 -1.431,20.513 5.941,35.935 14.477,53.791 2.761,5.777 5.617,11.75 8.264,18.129 1.197,2.887 0.968,6.167 0.747,9.338 -0.04,0.58 -0.081,1.165 -0.112,1.744 l 26.542,-4.622 -26.448,8.453 c 0.057,0.371 0.128,0.73 0.231,1.056 0.614,1.948 1.366,3.867 2.177,5.813 l -0.061,-0.203 15.32,-3.5 -14.567,5.35 c 0.28,0.655 0.563,1.31 0.852,1.977 3.021,6.967 6.143,14.169 6.574,23.461 1.163,6.396 1.176,9.859 1.176,10.004 l -0.044,0.489 c 4.901,1.536 13.208,4.743 12.138,11.73 -0.463,3.024 -4.716,29.604 -11.487,31.635 -1.292,0.387 -2.542,0.582 -3.727,0.631 4.307,3.533 10.345,5.737 18.107,2.128 10.452,-4.861 24.527,-21.706 28.096,-45.188 v -23.203 c -1.468,-11.197 -4.616,-24.008 -7.683,-36.481 -5.757,-23.41 -11.195,-45.522 -5.581,-56.749 3.736,-6.404 7.164,-13.043 10.174,-19.882 1.09,-2.476 2.129,-4.979 3.09,-7.512 v -92.809 c 0,-8.1 6.567,-14.667 14.667,-14.667 h 93.432 c -8.711,-28.666 -38.67,-42.225 -51.169,-45.02 -3.369,-0.418 -6.77,-0.592 -10.149,-0.409 -3.421,0.19 -6.826,0.743 -10.047,1.875 -3.218,1.12 -6.228,2.897 -8.633,5.395 -2.417,2.485 -4.151,5.676 -5.182,9.12 0.542,-3.544 1.827,-7.068 4.033,-10.083 m -19.779,70.893 v 100.283 1.865 34.831 8.979 120.924 h 151.485 v -56.34 c -0.158,-0.493 -0.309,-0.975 -0.474,-1.481 -1.978,-6.069 -1.694,-13.023 0.474,-19.136 v -34.156 c -2.492,-3.066 -4.278,-6.866 -4.975,-12.587 -0.983,-8.077 0.871,-15.69 4.975,-20.814 v -8.491 c -8.163,-9.402 -10.328,-23.005 -8.904,-29.558 1.113,-5.12 4.449,-9.77 8.904,-13.018 v -18.524 c -0.183,-0.154 -0.351,-0.302 -0.541,-0.458 -8.139,-6.689 -9.32,-13.858 -8.878,-18.694 0.653,-7.151 5.094,-12.701 8.943,-14.833 0.153,-0.084 0.318,-0.144 0.476,-0.218 v -18.574 z m 121.273,-16.161 c -0.234,0 -0.425,0.19 -0.425,0.424 v 6.177 c 0,0.233 0.191,0.425 0.425,0.425 h 4.762 c 0.234,0 0.425,-0.192 0.425,-0.425 v -1.36 h 1.955 c 0.234,0 0.425,-0.191 0.425,-0.425 v -6.177 c 0,-0.234 -0.191,-0.425 -0.425,-0.425 h -4.761 c -0.234,0 -0.425,0.191 -0.425,0.425 v 1.361 z m 53.952,47.308 c 1.651,2.406 -0.142,12.408 -1.755,16.498 -0.916,2.322 -1.93,3.535 -3.195,3.815 -3.639,0.818 -16.085,-6.724 -16.778,-9.424 -1.372,-5.347 3.121,-16.124 5.314,-18.682 0.363,-0.423 1.03,-0.896 2.141,-0.933 -3.203,-0.974 -6.069,-1.202 -8.005,-0.129 -3.051,1.689 -6.4,6.25 -6.897,11.696 -0.355,3.874 0.648,9.663 7.433,15.241 7.373,6.059 10.997,11.504 10.772,16.182 -0.03,0.599 -0.12,1.146 -0.249,1.642 2.184,0.265 4.672,0.923 6.88,1.62 7.922,-1.264 10.604,-4.91 12.053,-7.964 1.914,-4.037 4.641,-19.5 -0.909,-25.477 -2.124,-2.287 -7.333,-6.195 -12.924,-9.247 2.903,1.971 5.461,4.203 6.119,5.162 m -4.503,15.416 c 1.18,-3.095 2.192,-8.858 2.225,-11.932 -0.815,0.642 -1.52,1.331 -2.086,2.099 -0.791,1.076 -1.312,2.288 -1.525,3.552 -0.213,1.263 -0.138,2.571 0.255,3.848 0.253,0.829 0.647,1.633 1.131,2.433 m -2.56,-1.818 c -0.782,-1.425 -1.085,-3.16 -0.797,-4.805 0.265,-1.652 1.142,-3.178 2.347,-4.267 0.926,-0.845 2.057,-1.417 3.228,-1.663 -0.021,-0.519 -0.083,-0.921 -0.189,-1.166 -1.327,-1.934 -9.81,-7.773 -11.742,-7.443 -1.807,2.256 -5.567,11.705 -4.633,15.777 1.236,1.84 11.115,7.682 13.187,7.364 0.291,-0.199 0.587,-0.66 0.878,-1.297 -0.926,-0.62 -1.724,-1.473 -2.279,-2.5 m 36.178,103.287 10e-4,10e-4 c 0.291,0.408 0.497,0.697 0.604,0.841 4.301,5.734 4.301,13.404 4.301,19.567 0,6.763 -7.965,15.664 -15.139,22.309 2.243,3.963 4.078,8.222 5.002,11.651 3.098,11.507 -7.721,38.627 -7.831,38.896 -3.107,7.544 -20.659,12.246 -30.53,13.362 v 16.66 c 0,9.189 -7.477,16.666 -16.667,16.666 H 281.644 c -9.19,0 -16.666,-7.477 -16.666,-16.666 v -22.109 c -7.104,12.183 -16.043,19.657 -22.724,22.764 -11.285,5.248 -22.598,2.455 -31.033,-7.666 -1.621,-1.946 -3.151,-3.786 4.66,-46.582 -0.045,-1.021 -0.241,-3.876 -1.069,-8.381 l -0.078,-0.696 c -0.33,-7.911 -3.177,-14.475 -5.931,-20.829 -1.423,-3.28 -2.894,-6.672 -4.009,-10.209 -1.011,-3.204 -0.784,-6.453 -0.564,-9.594 0.149,-2.142 0.319,-4.57 -0.156,-5.714 -2.569,-6.191 -5.377,-12.065 -8.093,-17.745 -8.649,-18.093 -16.818,-35.182 -15.239,-57.799 0.664,-9.52 0.825,-18.491 0.981,-27.166 0.445,-24.62 0.864,-47.885 12.243,-79.174 l -0.385,-0.699 -1.46,-0.73 0.521,-0.972 c -12.236,-22.183 -25.985,-46.729 -27.746,-49.078 l -1.817,-2.422 1.304,-2.731 c 3.593,-7.53 14.267,-26.855 35.721,-43.658 21.778,-17.057 47.186,-25.705 75.518,-25.705 0.725,0 1.455,0.005 2.186,0.016 l 2.667,0.043 1.451,2.239 c 20.496,31.639 40.372,56.617 43.827,58.742 3.618,0.842 15.107,4.033 28.026,12.872 10.26,7.018 23.497,19.235 29.064,37.893 h 35.388 c 9.19,0 16.667,7.477 16.667,16.667 V 252.9 c 10.387,2.393 22.573,11.584 25.679,14.927 8.4,9.047 3.853,28.084 1.934,32.131 -2.087,4.4 -5.474,7.596 -10.096,9.537 11.62,10.347 24.387,27.673 25.895,30.138 3.634,5.95 7.019,24.873 -5.138,37.889 1.743,2.273 3.528,4.685 5.318,7.189"
           style="fill:#110f0d;fill-opacity:1;fill-rule:nonzero;stroke:none"
           id="path2454" />
        <g
           id="g2456"
           transform="translate(358.8955,514.8979)">
          <path
             d="M 0,0 C 0.145,0 0.098,-0.001 -0.068,-0.007 -0.046,-0.006 -0.022,0 0,0 H -27.035 V -3.747 H -0.946 0 9.035 l 0,3.747 z"
             style="fill:#515257;fill-opacity:1;fill-rule:nonzero;stroke:none"
             id="path2458" />
        </g>
        <g
           id="g2460"
           transform="translate(403.5225,511.1509)">
          <path
             d="M 0,0 C 1.034,0 1.873,0.839 1.873,1.874 1.873,2.908 1.034,3.747 0,3.747 -1.034,3.747 -1.874,2.908 -1.874,1.874 -1.874,0.839 -1.034,0 0,0"
             style="fill:#515257;fill-opacity:1;fill-rule:nonzero;stroke:none"
             id="path2462" />
        </g>
        <g
           id="g2464"
           transform="translate(331.374,384.5488)">
          <path
             d="M 0,0 0.048,-0.023 Z"
             style="fill:#110f0d;fill-opacity:1;fill-rule:nonzero;stroke:none"
             id="path2466" />
        </g>
      </g>
    </g>
  </g>
</svg>
